<?xml version="1.0" encoding="UTF-8"?>
<svg version="1.1" xmlns="http://www.w3.org/2000/svg" width="512" height="512">
<path d="M0 0 C0.8751828 0.00182281 1.7503656 0.00364563 2.65206909 0.00552368 C16.42760097 0.05368604 29.81502328 0.72187639 43.375 3.3125 C44.2937793 3.47878906 45.21255859 3.64507812 46.15917969 3.81640625 C89.8564666 11.86159375 130.16096747 31.91719314 163.375 61.3125 C164.25671875 62.08335938 165.1384375 62.85421875 166.046875 63.6484375 C175.69572982 72.18857298 184.40954126 81.18087521 192.375 91.3125 C193.15488281 92.27542969 193.93476563 93.23835938 194.73828125 94.23046875 C228.9530025 137.28535721 246.92576498 191.13590122 246.6875 245.9375 C246.68476578 247.2502742 246.68476578 247.2502742 246.68197632 248.58956909 C246.63381396 262.36510097 245.96562361 275.75252328 243.375 289.3125 C243.20871094 290.2312793 243.04242188 291.15005859 242.87109375 292.09667969 C234.82590625 335.7939666 214.77030686 376.09846747 185.375 409.3125 C184.60414063 410.19421875 183.83328125 411.0759375 183.0390625 411.984375 C174.49892702 421.63322982 165.50662479 430.34704126 155.375 438.3125 C154.41207031 439.09238281 153.44914062 439.87226563 152.45703125 440.67578125 C122.01720021 464.86560896 85.77174581 481.0854484 47.6875 488.5625 C46.53266113 488.78945557 46.53266113 488.78945557 45.35449219 489.02099609 C30.55741014 491.72331091 15.76993444 492.69475616 0.75 492.625 C-0.48508301 492.62226578 -0.48508301 492.62226578 -1.74511719 492.61947632 C-23.31742903 492.53953836 -43.73218736 489.68116467 -64.625 484.3125 C-65.72303955 484.03865479 -65.72303955 484.03865479 -66.84326172 483.75927734 C-108.06186463 473.33186623 -144.31992714 449.49792731 -174.625 420.3125 C-175.4190625 419.5596875 -176.213125 418.806875 -177.03125 418.03125 C-182.38136082 412.85098397 -187.0086093 407.14656971 -191.625 401.3125 C-192.79869141 399.86423828 -192.79869141 399.86423828 -193.99609375 398.38671875 C-228.1979015 355.31980243 -246.17578698 301.49415904 -245.9375 246.6875 C-245.93567719 245.8123172 -245.93385437 244.9371344 -245.93197632 244.03543091 C-245.88381396 230.25989903 -245.21562361 216.87247672 -242.625 203.3125 C-242.45871094 202.3937207 -242.29242188 201.47494141 -242.12109375 200.52832031 C-233.05943568 151.31009233 -208.84522273 108.34500867 -174.625 72.3125 C-173.83996094 71.48492187 -173.05492187 70.65734375 -172.24609375 69.8046875 C-166.74366301 64.15460656 -160.81267124 59.19314978 -154.625 54.3125 C-153.17867187 53.14074219 -153.17867187 53.14074219 -151.703125 51.9453125 C-108.64223318 17.73704057 -54.80412131 -0.23827595 0 0 Z " fill="#FEFEFE" transform="translate(255.625,9.6875)"/>
<path d="M0 0 C0.8751828 0.00182281 1.7503656 0.00364563 2.65206909 0.00552368 C16.42760097 0.05368604 29.81502328 0.72187639 43.375 3.3125 C44.2937793 3.47878906 45.21255859 3.64507812 46.15917969 3.81640625 C89.8564666 11.86159375 130.16096747 31.91719314 163.375 61.3125 C164.25671875 62.08335938 165.1384375 62.85421875 166.046875 63.6484375 C175.69572982 72.18857298 184.40954126 81.18087521 192.375 91.3125 C193.15488281 92.27542969 193.93476563 93.23835938 194.73828125 94.23046875 C228.9530025 137.28535721 246.92576498 191.13590122 246.6875 245.9375 C246.68476578 247.2502742 246.68476578 247.2502742 246.68197632 248.58956909 C246.63381396 262.36510097 245.96562361 275.75252328 243.375 289.3125 C243.20871094 290.2312793 243.04242188 291.15005859 242.87109375 292.09667969 C234.82590625 335.7939666 214.77030686 376.09846747 185.375 409.3125 C184.60414063 410.19421875 183.83328125 411.0759375 183.0390625 411.984375 C174.49892702 421.63322982 165.50662479 430.34704126 155.375 438.3125 C154.41207031 439.09238281 153.44914062 439.87226563 152.45703125 440.67578125 C122.01720021 464.86560896 85.77174581 481.0854484 47.6875 488.5625 C46.53266113 488.78945557 46.53266113 488.78945557 45.35449219 489.02099609 C30.55741014 491.72331091 15.76993444 492.69475616 0.75 492.625 C-0.48508301 492.62226578 -0.48508301 492.62226578 -1.74511719 492.61947632 C-23.31742903 492.53953836 -43.73218736 489.68116467 -64.625 484.3125 C-65.72303955 484.03865479 -65.72303955 484.03865479 -66.84326172 483.75927734 C-108.06186463 473.33186623 -144.31992714 449.49792731 -174.625 420.3125 C-175.4190625 419.5596875 -176.213125 418.806875 -177.03125 418.03125 C-182.38136082 412.85098397 -187.0086093 407.14656971 -191.625 401.3125 C-192.79869141 399.86423828 -192.79869141 399.86423828 -193.99609375 398.38671875 C-228.1979015 355.31980243 -246.17578698 301.49415904 -245.9375 246.6875 C-245.93567719 245.8123172 -245.93385437 244.9371344 -245.93197632 244.03543091 C-245.88381396 230.25989903 -245.21562361 216.87247672 -242.625 203.3125 C-242.45871094 202.3937207 -242.29242188 201.47494141 -242.12109375 200.52832031 C-233.05943568 151.31009233 -208.84522273 108.34500867 -174.625 72.3125 C-173.83996094 71.48492187 -173.05492187 70.65734375 -172.24609375 69.8046875 C-166.74366301 64.15460656 -160.81267124 59.19314978 -154.625 54.3125 C-153.17867187 53.14074219 -153.17867187 53.14074219 -151.703125 51.9453125 C-108.64223318 17.73704057 -54.80412131 -0.23827595 0 0 Z M-43.625 55.3125 C-45.02177979 55.65861328 -45.02177979 55.65861328 -46.44677734 56.01171875 C-67.8670419 61.33422327 -88.24001743 70.04695301 -106.625 82.3125 C-107.19831055 82.69196777 -107.77162109 83.07143555 -108.36230469 83.46240234 C-152.20076485 112.79782157 -181.93229234 158.54063334 -192.38793945 210.07275391 C-194.62915018 221.92167127 -195.14278483 233.46112996 -195.0625 245.5 C-195.06012329 246.44072357 -195.05774658 247.38144714 -195.05529785 248.35067749 C-194.99861572 262.70359784 -194.20830624 276.35040318 -190.625 290.3125 C-190.33625 291.53453125 -190.0475 292.7565625 -189.75 294.015625 C-188.84075254 297.5064858 -187.77339941 300.89266074 -186.625 304.3125 C-186.3676709 305.09882813 -186.1103418 305.88515625 -185.84521484 306.6953125 C-170.4795348 353.20013749 -139.04184485 391.85094263 -96.625 416.3125 C-94.92150391 417.29669922 -94.92150391 417.29669922 -93.18359375 418.30078125 C-78.39368724 426.61947269 -62.4419542 432.8379786 -45.93554688 436.76123047 C-44.40172226 437.12718313 -42.871575 437.50892635 -41.34570312 437.90673828 C-14.27134491 444.84553545 17.26583129 443.31687767 44.375 437.3125 C45.18936523 437.13589844 46.00373047 436.95929688 46.84277344 436.77734375 C95.0528962 425.89833569 137.60273392 393.84623649 164.56640625 352.9921875 C166.5700587 349.80045932 168.49070213 346.57602622 170.375 343.3125 C171.03113281 342.1884375 171.68726563 341.064375 172.36328125 339.90625 C195.77808684 298.65321671 202.77292497 244.68056716 190.62109375 198.70703125 C176.03422553 146.37292037 143.50457013 102.77199025 96.27734375 75.46875 C78.45435317 65.4615975 59.38493064 58.3643666 39.375 54.3125 C38.70678726 54.17568817 38.03857452 54.03887634 37.35011292 53.8979187 C24.90530554 51.41344322 12.79515053 50.78698669 0.125 50.875 C-0.82065826 50.87837372 -1.76631653 50.88174744 -2.7406311 50.88522339 C-16.75299751 50.95759168 -30.04092419 51.63696512 -43.625 55.3125 Z " fill="#E5E5E5" transform="translate(255.625,9.6875)"/>
<path d="M0 0 C2.02256504 1.85460116 4.09265234 3.62066411 6.1953125 5.3828125 C20.35364554 17.81036735 32.05474204 33.71581149 41.2578125 50.0703125 C41.67385742 50.80282227 42.08990234 51.53533203 42.51855469 52.29003906 C69.14437073 99.65677157 77.12728235 156.91870181 62.8828125 209.70703125 C55.34980729 235.4882587 43.64476443 259.77854361 27.2578125 281.0703125 C26.51144531 282.04742187 25.76507813 283.02453125 24.99609375 284.03125 C5.82142575 308.2033823 -17.33102796 326.97866006 -44.7421875 341.0703125 C-45.80953125 341.61945313 -45.80953125 341.61945313 -46.8984375 342.1796875 C-68.30024542 353.0379577 -91.04755874 358.89537758 -114.7421875 362.0703125 C-115.74121094 362.204375 -116.74023438 362.3384375 -117.76953125 362.4765625 C-170.35035297 368.03576832 -225.15950929 352.72585244 -266.51171875 319.7109375 C-279.17777484 309.42196251 -290.58279749 298.90500855 -300.7421875 286.0703125 C-301.53625 285.09320313 -302.3303125 284.11609375 -303.1484375 283.109375 C-319.32849524 262.78189739 -331.67015829 239.08086097 -338.7421875 214.0703125 C-339.02932617 213.05662598 -339.02932617 213.05662598 -339.32226562 212.02246094 C-354.08452158 158.76003571 -347.49772725 102.00838561 -321.11474609 53.48583984 C-302.82341003 21.29543091 -276.068213 -6.73905667 -243.7421875 -24.9296875 C-242.64342285 -25.55375488 -242.64342285 -25.55375488 -241.52246094 -26.19042969 C-164.64353298 -69.40565872 -65.36441639 -60.32021706 0 0 Z M-182.7421875 -35.9296875 C-184.13896729 -35.58357422 -184.13896729 -35.58357422 -185.56396484 -35.23046875 C-206.9842294 -29.90796423 -227.35720493 -21.19523449 -245.7421875 -8.9296875 C-246.31549805 -8.55021973 -246.88880859 -8.17075195 -247.47949219 -7.77978516 C-291.31795235 21.55563407 -321.04947984 67.29844584 -331.50512695 118.83056641 C-333.74633768 130.67948377 -334.25997233 142.21894246 -334.1796875 154.2578125 C-334.17731079 155.19853607 -334.17493408 156.13925964 -334.17248535 157.10848999 C-334.11580322 171.46141034 -333.32549374 185.10821568 -329.7421875 199.0703125 C-329.4534375 200.29234375 -329.1646875 201.514375 -328.8671875 202.7734375 C-327.95794004 206.2642983 -326.89058691 209.65047324 -325.7421875 213.0703125 C-325.4848584 213.85664063 -325.2275293 214.64296875 -324.96240234 215.453125 C-309.5967223 261.95794999 -278.15903235 300.60875513 -235.7421875 325.0703125 C-234.03869141 326.05451172 -234.03869141 326.05451172 -232.30078125 327.05859375 C-217.51087474 335.37728519 -201.5591417 341.5957911 -185.05273438 345.51904297 C-183.51890976 345.88499563 -181.9887625 346.26673885 -180.46289062 346.66455078 C-153.38853241 353.60334795 -121.85135621 352.07469017 -94.7421875 346.0703125 C-93.92782227 345.89371094 -93.11345703 345.71710938 -92.27441406 345.53515625 C-44.0642913 334.65614819 -1.51445358 302.60404899 25.44921875 261.75 C27.4528712 258.55827182 29.37351463 255.33383872 31.2578125 252.0703125 C31.91394531 250.94625 32.57007813 249.8221875 33.24609375 248.6640625 C56.66089934 207.41102921 63.65573747 153.43837966 51.50390625 107.46484375 C36.91703803 55.13073287 4.38738263 11.52980275 -42.83984375 -15.7734375 C-60.66283433 -25.78059 -79.73225686 -32.8778209 -99.7421875 -36.9296875 C-100.41040024 -37.06649933 -101.07861298 -37.20331116 -101.76707458 -37.3442688 C-114.21188196 -39.82874428 -126.32203697 -40.45520081 -138.9921875 -40.3671875 C-139.93784576 -40.36381378 -140.88350403 -40.36044006 -141.8578186 -40.35696411 C-155.87018501 -40.28459582 -169.15811169 -39.60522238 -182.7421875 -35.9296875 Z " fill="#CCCCCC" transform="translate(394.7421875,100.9296875)"/>
<path d="M0 0 C49.11093465 0 91.71246612 15.979305 128 49 C128.51804199 49.47131348 129.03608398 49.94262695 129.56982422 50.42822266 C160.79747043 79.26840347 181.90443154 123.04848834 184.19238281 165.57592773 C184.26653413 169.15718909 184.27767523 172.73060288 184.25 176.3125 C184.24395752 177.5799707 184.23791504 178.84744141 184.23168945 180.15332031 C184.13208556 189.59697651 183.50904488 198.67830508 182 208 C181.81363227 209.35396488 181.62876938 210.70813764 181.4453125 212.0625 C175.17847969 255.19751452 148.78220546 297.07310495 114.125 323.25 C108.80293462 327.16161491 103.346749 330.86790599 97.75 334.375 C97.13012207 334.77493164 96.51024414 335.17486328 95.87158203 335.58691406 C94.109375 336.6484375 94.109375 336.6484375 91 338 C87.99215093 337.14634096 87.04536768 336.06578442 85.26074219 333.47802734 C84.69516602 332.4411377 84.12958984 331.40424805 83.546875 330.3359375 C82.928125 329.21445312 82.309375 328.09296875 81.671875 326.9375 C81.03100959 325.75012973 80.39038765 324.56262801 79.75 323.375 C79.09476476 322.17913094 78.43852555 320.98381138 77.78125 319.7890625 C76.17753189 316.86463535 74.58431444 313.934971 73 311 C77.64550781 307.05175781 77.64550781 307.05175781 80.8359375 306.5859375 C85.325497 305.75453759 88.07991363 303.40077647 91.625 300.625 C92.3264917 300.08480225 93.0279834 299.54460449 93.75073242 298.98803711 C104.81134341 290.36350648 114.2523365 280.93096463 123 270 C123.60457031 269.27296875 124.20914063 268.5459375 124.83203125 267.796875 C126.41636165 265.87512102 126.41636165 265.87512102 128 263 C127.67958603 260.39719432 127.67958603 260.39719432 127 258 C128.1875 255.1875 128.1875 255.1875 130 253 C131.32 253 132.64 253 134 253 C144.62755226 231.9381237 151.51935864 210.63920517 153 187 C151.35 187 149.7 187 148 187 C148 184.69 148 182.38 148 180 C149.65 180 151.3 180 153 180 C151.94904877 155.95876483 147.79191375 134.5838275 137 113 C133.535 113.495 133.535 113.495 130 114 C128 111 128 111 128.1875 109 C129.10155185 106.75002623 130.25644191 105.65426536 132 104 C121.31013601 86.42853606 107.92482807 70.76005907 91 58.9375 C90.43571289 58.54296631 89.87142578 58.14843262 89.29003906 57.74194336 C86.40552953 55.63588559 86.40552953 55.63588559 83 55 C81.3553326 57.46326712 81.3553326 57.46326712 80 60 C76.73045798 59.43628586 75.17424117 58.50037734 73 56 C74.32 53.69 75.64 51.38 77 49 C76.16210938 48.73832031 75.32421875 48.47664063 74.4609375 48.20703125 C71.41987461 47.14643482 68.52408156 45.92887795 65.59765625 44.58886719 C47.0581392 36.11759281 28.3372288 31.84738453 8 31 C8 33.97 8 36.94 8 40 C5.36 40 2.72 40 0 40 C0 26.8 0 13.6 0 0 Z " fill="#FCCA67" transform="translate(252,76)"/>
<path d="M0 0 C11.88 0 23.76 0 36 0 C36 9.59087244 35.31635518 18.56821066 34 28 C33.90879883 28.68868164 33.81759766 29.37736328 33.72363281 30.08691406 C27.86254103 73.17107999 2.38115441 115.06094557 -31.8515625 141.72167969 C-37.79763806 146.21280336 -43.93600757 150.41845933 -50.25 154.375 C-50.86987793 154.77493164 -51.48975586 155.17486328 -52.12841797 155.58691406 C-53.890625 156.6484375 -53.890625 156.6484375 -57 158 C-60.00784907 157.14634096 -60.95463232 156.06578442 -62.73925781 153.47802734 C-63.30483398 152.4411377 -63.87041016 151.40424805 -64.453125 150.3359375 C-65.071875 149.21445312 -65.690625 148.09296875 -66.328125 146.9375 C-66.96899041 145.75012973 -67.60961235 144.56262801 -68.25 143.375 C-68.90523524 142.17913094 -69.56147445 140.98381138 -70.21875 139.7890625 C-71.82246811 136.86463535 -73.41568556 133.934971 -75 131 C-70.35449219 127.05175781 -70.35449219 127.05175781 -67.1640625 126.5859375 C-62.674503 125.75453759 -59.92008637 123.40077647 -56.375 120.625 C-55.6735083 120.08480225 -54.9720166 119.54460449 -54.24926758 118.98803711 C-43.18865659 110.36350648 -33.7476635 100.93096463 -25 90 C-24.39542969 89.27296875 -23.79085937 88.5459375 -23.16796875 87.796875 C-21.58363835 85.87512102 -21.58363835 85.87512102 -20 83 C-20.32041397 80.39719432 -20.32041397 80.39719432 -21 78 C-19.8125 75.1875 -19.8125 75.1875 -18 73 C-16.68 73 -15.36 73 -14 73 C-3.37244774 51.9381237 3.51935864 30.63920517 5 7 C3.35 7 1.7 7 0 7 C0 4.69 0 2.38 0 0 Z " fill="#EB7162" transform="translate(400,256)"/>
<path d="M0 0 C3.88746094 1.55383763 5.12839301 4.46852 7.0234375 7.99609375 C7.90207926 9.5587425 8.78100382 11.12123225 9.66015625 12.68359375 C10.13630371 13.54339844 10.61245117 14.40320313 11.10302734 15.2890625 C13.33932015 19.29672531 15.64465748 23.26345284 17.94580078 27.23413086 C19.86647433 30.54879365 21.77992835 33.86752676 23.69140625 37.1875 C27.02725064 42.98028863 30.36467852 48.7721588 33.7043457 54.56274414 C34.95711704 56.73491717 36.2095821 58.90726689 37.46166992 61.07983398 C38.03892822 62.08087158 38.61618652 63.08190918 39.2109375 64.11328125 C39.77039063 65.08491211 40.32984375 66.05654297 40.90625 67.05761719 C42.1396153 69.1821304 43.38569654 71.29928506 44.640625 73.41113281 C45.28257812 74.49362305 45.92453125 75.57611328 46.5859375 76.69140625 C47.17246094 77.67254395 47.75898438 78.65368164 48.36328125 79.66455078 C49.6484375 82.05859375 49.6484375 82.05859375 49.6484375 84.05859375 C50.1434375 83.89359375 50.6384375 83.72859375 51.1484375 83.55859375 C59.24425076 81.9394311 66.40779577 83.45638178 73.3984375 87.74609375 C78.07371792 92.55124307 81.4314671 97.91252299 81.8984375 104.68359375 C81.79616663 111.62522899 79.61144282 118.09558843 74.6484375 123.05859375 C73.9884375 123.05859375 73.3284375 123.05859375 72.6484375 123.05859375 C79.46751688 135.30687647 91.86613013 143.11117036 103.6484375 150.05859375 C103.31879148 156.32186806 102.31534384 160.6586729 97.6484375 165.05859375 C92.25510791 168.785921 87.21383716 170.6241347 80.65625 170.52734375 C77.77057237 169.85364469 76.62906655 169.33503103 74.6484375 167.05859375 C73.9332858 163.85679167 73.81404452 160.64111111 73.6484375 157.37109375 C73.05682837 148.94756823 71.72859936 141.23522986 69.453125 133.11328125 C68.6484375 130.05859375 68.6484375 130.05859375 68.6484375 127.05859375 C67.1634375 127.55359375 67.1634375 127.55359375 65.6484375 128.05859375 C58.80810155 129.95792245 53.64298723 129.69172135 47.46875 126.265625 C41.48420991 122.29733554 37.35164705 117.00244809 35.6484375 110.05859375 C34.8236423 103.42330106 36.04245181 98.66647897 39.6484375 93.05859375 C40.2671875 92.35734375 40.8859375 91.65609375 41.5234375 90.93359375 C42.942225 89.05637879 42.942225 89.05637879 42.10546875 86.61328125 C40.03180357 81.55420534 37.2585461 76.99775214 34.4609375 72.30859375 C33.18423972 70.14491826 31.90822079 67.98084209 30.6328125 65.81640625 C29.97345703 64.70040039 29.31410156 63.58439453 28.63476562 62.43457031 C24.83089414 55.96948491 21.09705467 49.46398123 17.3581543 42.96118164 C14.41341271 37.84258328 11.46121936 32.7290382 8.47221375 27.63616943 C7.07223724 25.24981 5.67741781 22.86045522 4.28292847 20.47088623 C3.29589711 18.78446772 2.30147355 17.10238264 1.30688477 15.42041016 C0.71061279 14.39737793 0.11434082 13.3743457 -0.5 12.3203125 C-1.02770996 11.42272217 -1.55541992 10.52513184 -2.09912109 9.6003418 C-3.3740885 7.01287871 -4.10525957 4.93263729 -4.3515625 2.05859375 C-2.3515625 0.05859375 -2.3515625 0.05859375 0 0 Z " fill="#CCCCCC" transform="translate(197.3515625,149.94140625)"/>
<path d="M0 0 C2.42525296 1.29239794 2.89626833 2.5521819 3.95385742 5.07226562 C4.32172363 5.93464844 4.68958984 6.79703125 5.06860352 7.68554688 C5.44452637 8.61625 5.82044922 9.54695312 6.20776367 10.50585938 C6.6017334 11.45589844 6.99570312 12.4059375 7.40161133 13.38476562 C16.62223179 35.99751098 21.14600879 58.51992637 20.77026367 82.94335938 C10.54026367 82.94335938 0.31026367 82.94335938 -10.22973633 82.94335938 C-10.43598633 79.12773437 -10.64223633 75.31210938 -10.85473633 71.38085938 C-12.28823501 50.67694915 -17.98635572 32.39771393 -27.22973633 13.94335938 C-23.75153634 11.91542417 -20.26443248 9.90387082 -16.76831055 7.90698242 C-15.58053468 7.22554344 -14.39527673 6.53969582 -13.21264648 5.84936523 C-11.51150577 4.85739024 -9.80040755 3.88255386 -8.08911133 2.90820312 C-7.06269531 2.31644287 -6.0362793 1.72468262 -4.97875977 1.11499023 C-2.22973633 -0.05664062 -2.22973633 -0.05664062 0 0 Z " fill="#FCCA67" transform="translate(415.229736328125,173.056640625)"/>
<path d="M0 0 C3.93244436 2.04953668 6.40422343 4.13204365 7.96875 8.2734375 C8.66673245 12.90629599 8.48083874 16.92791078 6.34375 21.1484375 C3.27509533 25.18614101 0.85147471 26.85940163 -4.20703125 27.5859375 C-8.27175375 27.80454442 -10.68703356 27.43917134 -14.40625 25.6484375 C-18.61130947 21.84385988 -20.17663444 18.3801717 -20.46875 12.7734375 C-20.30262833 8.28815243 -19.0379792 5.68648146 -16.03125 2.2734375 C-11.44378976 -1.65867128 -5.5997399 -2.00298389 0 0 Z " fill="#676767" transform="translate(262.03125,242.7265625)"/>
<path d="M0 0 C2.64 0 5.28 0 8 0 C8 13.2 8 26.4 8 40 C5.36 40 2.72 40 0 40 C0 26.8 0 13.6 0 0 Z " fill="#787571" transform="translate(252,76)"/>
<path d="M0 0 C2.475 0.495 2.475 0.495 5 1 C5.69238281 2.63110352 5.69238281 2.63110352 6 5 C4.78417969 7.76147461 4.78417969 7.76147461 2.921875 10.90234375 C2.25542969 12.03994141 1.58898437 13.17753906 0.90234375 14.34960938 C0.18516082 15.54573184 -0.53228957 16.74169398 -1.25 17.9375 C-1.95295195 19.12889185 -2.65478763 20.32094309 -3.35546875 21.51367188 C-6.20863648 26.3593909 -9.10562761 31.1788184 -12 36 C-15.31726155 35.42805835 -16.72635823 34.42999536 -19 32 C-16.93967121 28.40553049 -14.87658578 24.81266157 -12.81103516 21.22119141 C-12.11009721 20.00156583 -11.4098879 18.78152116 -10.71044922 17.56103516 C-9.69954997 15.79736927 -8.68595841 14.03527403 -7.671875 12.2734375 C-7.0644043 11.21560059 -6.45693359 10.15776367 -5.83105469 9.06787109 C-3.98064896 5.96757798 -2.02738087 2.98627722 0 0 Z " fill="#6C6A67" transform="translate(344,100)"/>
<path d="M0 0 C3.19851772 1.5672813 4.15752087 4.01152252 5.87158203 7.0871582 C6.21631561 7.69774582 6.56104919 8.30833344 6.91622925 8.93742371 C8.01521276 10.89089002 9.09571323 12.85391906 10.17626953 14.81762695 C10.91077635 16.12883007 11.64644089 17.43938537 12.38330078 18.74926758 C17.8825208 28.55803485 17.8825208 28.55803485 20.05126953 33.00512695 C16.42626953 36.00512695 16.42626953 36.00512695 13.05126953 36.00512695 C12.61258545 35.24369385 12.17390137 34.48226074 11.72192383 33.69775391 C10.08409404 30.85542732 8.44586601 28.01333103 6.80737305 25.17138672 C6.10018357 23.94458989 5.39314996 22.71770321 4.6862793 21.49072266 C3.66643218 19.72054404 2.64601296 17.95069627 1.62548828 16.1809082 C1.01278076 15.11783447 0.40007324 14.05476074 -0.23120117 12.95947266 C-1.33988285 11.0524141 -2.48479504 9.1657557 -3.67211914 7.30664062 C-4.94873047 5.00512695 -4.94873047 5.00512695 -4.94873047 2.00512695 C-1.94873047 0.00512695 -1.94873047 0.00512695 0 0 Z " fill="#6B6B6B" transform="translate(166.94873046875,99.994873046875)"/>
<path d="M0 0 C5.80345473 2.17060455 11.06737993 5.27510996 16.43066406 8.33984375 C17.64743939 9.03215821 18.8675397 9.71866002 20.09082031 10.39941406 C21.86479533 11.38664494 23.62842837 12.39036635 25.390625 13.3984375 C26.44282227 13.99317871 27.49501953 14.58791992 28.57910156 15.20068359 C31 17 31 17 31.97558594 19.03759766 C32 21 32 21 30 24 C24.87417082 23.46626926 21.11552905 20.93769013 16.8125 18.3125 C16.06162109 17.86132812 15.31074219 17.41015625 14.53710938 16.9453125 C13.04213152 16.04652306 11.54876211 15.14505204 10.05712891 14.24072266 C6.62529358 12.17086897 3.15262664 10.16976953 -0.3125 8.15625 C-2 7 -2 7 -3 5 C-1.5625 2.375 -1.5625 2.375 0 0 Z " fill="#6C6C6C" transform="translate(100,166)"/>
<path d="M0 0 C3 1 3 1 5 4 C5 4.99 5 5.98 5 7 C4.06317383 7.50599731 4.06317383 7.50599731 3.10742188 8.0222168 C0.23682885 9.57464243 -2.63159163 11.13104177 -5.5 12.6875 C-6.48226563 13.21794922 -7.46453125 13.74839844 -8.4765625 14.29492188 C-13.57583236 17.06552517 -18.52117526 19.87344231 -23.26367188 23.22583008 C-25.52616017 24.234597 -26.71294808 23.80680715 -29 23 C-29.33 21.35 -29.66 19.7 -30 18 C-26.36613172 15.73752201 -22.72199137 13.49273852 -19.06787109 11.26318359 C-17.6317154 10.38589085 -16.19726316 9.50580582 -14.76416016 8.62353516 C-12.47408962 7.21750455 -10.1756103 5.82620333 -7.875 4.4375 C-7.14095947 3.98391113 -6.40691895 3.53032227 -5.65063477 3.06298828 C-3.81225553 1.96274454 -1.9095209 0.97154745 0 0 Z " fill="#6C6A67" transform="translate(410,166)"/>
<path d="M0 0 C2.64 0 5.28 0 8 0 C8 10.56 8 21.12 8 32 C5.36 32 2.72 32 0 32 C0 21.44 0 10.88 0 0 Z " fill="#767676" transform="translate(252,404)"/>
<path d="M0 0 C11.88 0 23.76 0 36 0 C36 2.31 36 4.62 36 7 C24.12 7 12.24 7 0 7 C0 4.69 0 2.38 0 0 Z " fill="#696867" transform="translate(400,256)"/>
<path d="M0 0 C11.88 0 23.76 0 36 0 C36 2.31 36 4.62 36 7 C24.12 7 12.24 7 0 7 C0 4.69 0 2.38 0 0 Z " fill="#696969" transform="translate(76,256)"/>
<path d="M0 0 C3.8617903 1.44545725 7.36725026 3.23280784 10.95703125 5.2578125 C12.06884766 5.88300781 13.18066406 6.50820313 14.32617188 7.15234375 C15.48831901 7.8098291 16.65042791 8.46738203 17.8125 9.125 C18.99398189 9.79064641 20.175621 10.45601384 21.35742188 11.12109375 C24.23983905 12.74465934 27.12062331 14.37105015 30 16 C28.56103265 20.67664389 28.56103265 20.67664389 26.25268555 22.00708008 C22.87800242 21.99647362 20.85361756 20.580368 17.95703125 18.88671875 C17.38796555 18.55710648 16.81889984 18.2274942 16.23258972 17.88789368 C15.03324021 17.18996247 13.83735547 16.4860477 12.64477539 15.77661133 C10.8158284 14.68947841 8.97661725 13.62173379 7.13476562 12.55664062 C-1.8471856 7.3056288 -1.8471856 7.3056288 -3 5 C-1.5625 2.375 -1.5625 2.375 0 0 Z " fill="#6C6767" transform="translate(382,329)"/>
<path d="M0 0 C0.99 1.98 1.98 3.96 3 6 C-0.62242867 8.18236481 -4.24747141 10.35999767 -7.87890625 12.52734375 C-10.44327062 14.05927843 -12.99247577 15.6112005 -15.52734375 17.19140625 C-16.57019531 17.82949219 -17.61304687 18.46757812 -18.6875 19.125 C-19.61949219 19.70507812 -20.55148438 20.28515625 -21.51171875 20.8828125 C-24 22 -24 22 -26.20703125 21.9921875 C-28.77022442 20.57377559 -29.02487098 18.67738202 -30 16 C-28.88757935 15.37955811 -28.88757935 15.37955811 -27.75268555 14.74658203 C-24.99578642 13.20817918 -22.23950783 11.668672 -19.48364258 10.12841797 C-18.29183222 9.46261118 -17.0997771 8.79724231 -15.9074707 8.13232422 C-14.19157316 7.17531258 -12.47663386 6.21658348 -10.76171875 5.2578125 C-9.73006592 4.6817627 -8.69841309 4.10571289 -7.63549805 3.51220703 C-1.51436874 0 -1.51436874 0 0 0 Z " fill="#6C6C6C" transform="translate(130,329)"/>
<path d="M0 0 C2.91517292 1.07401108 4.77810176 1.77810176 7 4 C5.09360446 7.53163203 3.17274877 11.05495119 1.23828125 14.57128906 C0.5825859 15.76799787 -0.0691529 16.96688356 -0.71679688 18.16796875 C-1.64965607 19.89633364 -2.59808952 21.61626382 -3.546875 23.3359375 C-4.11245117 24.37282715 -4.67802734 25.4097168 -5.26074219 26.47802734 C-7.03960487 29.05742818 -8.02917249 30.08734852 -11 31 C-13.25 30.125 -13.25 30.125 -15 29 C-14.36666314 25.98034786 -13.36841914 23.60134434 -11.85546875 20.91796875 C-11.42556641 20.15033203 -10.99566406 19.38269531 -10.55273438 18.59179688 C-9.87694336 17.40166992 -9.87694336 17.40166992 -9.1875 16.1875 C-8.74857422 15.40568359 -8.30964844 14.62386719 -7.85742188 13.81835938 C-5.2605458 9.19954711 -2.63355325 4.59797526 0 0 Z " fill="#6C6C6C" transform="translate(180,383)"/>
<path d="M0 0 C0.27674561 0.50337891 0.55349121 1.00675781 0.83862305 1.52539062 C2.11924101 3.85155786 3.40335055 6.17578057 4.6875 8.5 C5.12255859 9.29148437 5.55761719 10.08296875 6.00585938 10.8984375 C8.54217961 15.48260148 11.17899603 19.93549842 14.09301758 24.29101562 C15 26 15 26 15 29 C13.02 29.66 11.04 30.32 9 31 C2.87219495 22.48085639 -1.98701101 13.19742163 -7 4 C-2.25 0 -2.25 0 0 0 Z " fill="#6C6969" transform="translate(332,383)"/>
<path d="M0 0 C2.64 0 5.28 0 8 0 C8.93854006 7.03905044 9.10808032 13.90272572 9 21 C6.69 21 4.38 21 2 21 C1.34 14.07 0.68 7.14 0 0 Z " fill="#707070" transform="translate(233,77)"/>
<path d="M0 0 C2.64 0 5.28 0 8 0 C7.34 6.93 6.68 13.86 6 21 C3.69 21 1.38 21 -1 21 C-1.13794954 13.93391809 -0.74805717 7.02639415 0 0 Z " fill="#6F6C66" transform="translate(271,77)"/>
<path d="M0 0 C2.31 0.66 4.62 1.32 7 2 C5.22089072 8.75052102 3.29561809 15.40620337 1 22 C-1.31 21.34 -3.62 20.68 -6 20 C-4.63125844 13.04223041 -2.5466871 6.61396893 0 0 Z " fill="#6F6C66" transform="translate(309,84)"/>
<path d="M0 0 C1.00486895 2.95670218 2.00306024 5.91561577 3 8.875 C3.28617188 9.71675781 3.57234375 10.55851562 3.8671875 11.42578125 C4.13789063 12.23144531 4.40859375 13.03710938 4.6875 13.8671875 C5.06455078 14.98262939 5.06455078 14.98262939 5.44921875 16.12060547 C6 18 6 18 6 20 C3.69 20.66 1.38 21.32 -1 22 C-2.00486895 19.04329782 -3.00306024 16.08438423 -4 13.125 C-4.28617188 12.28324219 -4.57234375 11.44148438 -4.8671875 10.57421875 C-5.13789063 9.76855469 -5.40859375 8.96289062 -5.6875 8.1328125 C-5.93886719 7.38918457 -6.19023437 6.64555664 -6.44921875 5.87939453 C-7 4 -7 4 -7 2 C-2.25 0 -2.25 0 0 0 Z " fill="#6E6E6E" transform="translate(203,84)"/>
<path d="M0 0 C1.98 0.66 3.96 1.32 6 2 C5.4253379 6.78642607 4.01754357 10.53788787 1.9375 14.875 C1.38964844 16.02742188 0.84179688 17.17984375 0.27734375 18.3671875 C-0.35494141 19.67042969 -0.35494141 19.67042969 -1 21 C-5.75 20.125 -5.75 20.125 -8 19 C-6.00386732 12.2813095 -3.2708579 6.19265192 0 0 Z " fill="#6D6A66" transform="translate(327,91)"/>
<path d="M0 0 C2.31 0 4.62 0 7 0 C7.15639125 5.06316683 6.62766071 9.50398438 5.5 14.4375 C5.2215625 15.67371094 4.943125 16.90992188 4.65625 18.18359375 C4.4396875 19.11300781 4.223125 20.04242188 4 21 C1.69 20.67 -0.62 20.34 -3 20 C-2.45136137 13.2142064 -1.45732062 6.64990964 0 0 Z " fill="#6D6B66" transform="translate(290,80)"/>
<path d="M0 0 C1.33957921 2.78871177 2.67058435 5.58143062 4 8.375 C4.3815625 9.1690625 4.763125 9.963125 5.15625 10.78125 C5.5171875 11.54179688 5.878125 12.30234375 6.25 13.0859375 C6.58515625 13.7876709 6.9203125 14.4894043 7.265625 15.21240234 C8 17 8 17 8 19 C5.35261084 20.4606285 4.10551666 21 1 21 C-0.17620825 18.58757287 -1.3410956 16.17072309 -2.5 13.75 C-3.00080078 12.72712891 -3.00080078 12.72712891 -3.51171875 11.68359375 C-5.19374744 8.1479008 -6 5.98070714 -6 2 C-2.25 0 -2.25 0 0 0 Z " fill="#6C6C6C" transform="translate(185,91)"/>
<path d="M0 0 C1.98 0 3.96 0 6 0 C8.29315717 6.38808068 10.44233875 13.14374931 10 20 C7.69 20.33 5.38 20.66 3 21 C2.49078672 18.81462633 1.99305563 16.62657569 1.5 14.4375 C1.2215625 13.21933594 0.943125 12.00117187 0.65625 10.74609375 C0.01362446 7.07777293 -0.11474823 3.71497397 0 0 Z " fill="#6C6C6C" transform="translate(215,80)"/>
<path d="M0 0 C2.475 0.99 2.475 0.99 5 2 C5 6.00346341 4.99477646 6.50705177 2.8125 9.453125 C2.36132812 10.071875 1.91015625 10.690625 1.4453125 11.328125 C0.96835937 11.96234375 0.49140625 12.5965625 0 13.25 C-0.47695313 13.8996875 -0.95390625 14.549375 -1.4453125 15.21875 C-2.62177327 16.81873664 -3.80978769 18.41021641 -5 20 C-7.5 18.6875 -7.5 18.6875 -10 17 C-10 13.71752569 -9.66923327 13.17433033 -7.8125 10.64453125 C-7.13574219 9.71157227 -7.13574219 9.71157227 -6.4453125 8.75976562 C-5.96835937 8.11716797 -5.49140625 7.47457031 -5 6.8125 C-4.52304687 6.15830078 -4.04609375 5.50410156 -3.5546875 4.83007812 C-2.37610725 3.21542318 -1.18886818 1.60709503 0 0 Z " fill="#6C6A66" transform="translate(360,110)"/>
<path d="M0 0 C3.24000075 1.08000025 3.6336358 1.49783862 5.48046875 4.16015625 C5.92197266 4.78857422 6.36347656 5.41699219 6.81835938 6.06445312 C7.49608398 7.05348633 7.49608398 7.05348633 8.1875 8.0625 C8.65091797 8.72572266 9.11433594 9.38894531 9.59179688 10.07226562 C10.73472863 11.71007505 11.8682718 13.35442897 13 15 C11.35 16.65 9.7 18.3 8 20 C3.24881495 15.68074087 -0.91712305 10.6487497 -4 5 C-3 2 -3 2 0 0 Z " fill="#6C6C6C" transform="translate(150,110)"/>
<path d="M0 0 C4.03721561 1.56583596 6.47070582 4.44173865 9.25 7.625 C9.70890625 8.140625 10.1678125 8.65625 10.640625 9.1875 C11.76592296 10.4534602 12.88372177 11.72607942 14 13 C12.63016497 16.16115776 12.0109362 16.9927092 9 19 C4.71 14.38 0.42 9.76 -4 5 C-2.68 3.35 -1.36 1.7 0 0 Z " fill="#6C6C6C" transform="translate(135,122)"/>
<path d="M0 0 C1.65 1.65 3.3 3.3 5 5 C3.85677009 6.14322991 2.71289785 7.28582237 1.56640625 8.42578125 C0.43893805 9.55887273 -0.67690909 10.70357072 -1.78515625 11.85546875 C-2.39230469 12.48066406 -2.99945313 13.10585937 -3.625 13.75 C-4.19476563 14.34296875 -4.76453125 14.9359375 -5.3515625 15.546875 C-7 17 -7 17 -10 18 C-11.32 16.68 -12.64 15.36 -14 14 C-12.87797799 10.63393398 -11.90725979 9.80518731 -9.25 7.5625 C-8.53328125 6.9540625 -7.8165625 6.345625 -7.078125 5.71875 C-4.73985682 3.78484399 -2.39123933 1.86815572 0 0 Z " fill="#6D6B66" transform="translate(389,135)"/>
<path d="M0 0 C5.54110713 3.40991208 10.20968493 7.61420043 15 12 C13.63016497 15.16115776 13.0109362 15.9927092 10 18 C9.23816406 17.32904297 9.23816406 17.32904297 8.4609375 16.64453125 C4.35357725 13.03713058 0.21678879 9.47885075 -4 6 C-2.68 4.02 -1.36 2.04 0 0 Z " fill="#6D6D6D" transform="translate(122,135)"/>
<path d="M0 0 C3.16115776 1.36983503 3.9927092 1.9890638 6 5 C5.34644531 5.63615234 5.34644531 5.63615234 4.6796875 6.28515625 C0.54991517 10.35235627 -3.28041129 14.55463788 -7 19 C-8.65 17.68 -10.3 16.36 -12 15 C-10.38462556 11.10082032 -7.72075127 8.28706228 -4.875 5.25 C-4.40707031 4.74339844 -3.93914062 4.23679687 -3.45703125 3.71484375 C-2.30873459 2.47280859 -1.15491328 1.23588506 0 0 Z " fill="#6B6966" transform="translate(375,122)"/>
<path d="M0 0 C3.66398299 1.68970089 6.90832572 3.87300211 10.25 6.125 C11.86648437 7.21167969 11.86648437 7.21167969 13.515625 8.3203125 C14.33546875 8.87460938 15.1553125 9.42890625 16 10 C15.25 12.4375 15.25 12.4375 14 15 C12.12402344 15.79077148 12.12402344 15.79077148 10 16 C7.57426902 14.43264967 5.45937639 12.89069827 3.25 11.0625 C2.64800781 10.58103516 2.04601562 10.09957031 1.42578125 9.60351562 C-0.05861023 8.41364626 -1.53054438 7.20826626 -3 6 C-1.125 1.125 -1.125 1.125 0 0 Z " fill="#6D6D6D" transform="translate(110,150)"/>
<path d="M0 0 C0.99 0.33 1.98 0.66 3 1 C4.1875 3.5625 4.1875 3.5625 5 6 C2.92815703 7.70358187 0.84457677 9.3872871 -1.25 11.0625 C-2.12978516 11.79049805 -2.12978516 11.79049805 -3.02734375 12.53320312 C-7.47841645 16.05905285 -7.47841645 16.05905285 -10.12402344 15.75952148 C-12 15 -12 15 -13.25 12.9375 C-13.4975 12.298125 -13.745 11.65875 -14 11 C-12.41728767 9.72839334 -10.83380365 8.45774715 -9.25 7.1875 C-8.36828125 6.47980469 -7.4865625 5.77210938 -6.578125 5.04296875 C-5.72734375 4.36878906 -4.8765625 3.69460937 -4 3 C-3.29359375 2.39800781 -2.5871875 1.79601562 -1.859375 1.17578125 C-1.24578125 0.78777344 -0.6321875 0.39976562 0 0 Z " fill="#6C6A66" transform="translate(400,150)"/>
<path d="M0 0 C4.23322844 0.62045463 7.52290295 2.10523559 11.3125 4.0625 C12.38113281 4.61035156 13.44976562 5.15820312 14.55078125 5.72265625 C15.35902344 6.14417969 16.16726562 6.56570312 17 7 C16.25 11.75 16.25 11.75 14 14 C8.72 11.69 3.44 9.38 -2 7 C-1 2 -1 2 0 0 Z " fill="#6D6D6D" transform="translate(91,183)"/>
<path d="M0 0 C1.4606285 2.64738916 2 3.89448334 2 7 C-0.24435445 8.03516348 -2.49406867 9.05314977 -4.75 10.0625 C-5.38421875 10.35705078 -6.0184375 10.65160156 -6.671875 10.95507812 C-11.45095438 13.07081639 -11.45095438 13.07081639 -14.453125 12.68359375 C-14.96359375 12.45800781 -15.4740625 12.23242188 -16 12 C-16.33 10.35 -16.66 8.7 -17 7 C-14.73272667 5.82592979 -12.46165376 4.66060261 -10.1875 3.5 C-9.22360352 2.99919922 -9.22360352 2.99919922 -8.24023438 2.48828125 C-5.30452301 0.99760916 -3.33873483 0 0 0 Z " fill="#6D6B66" transform="translate(421,183)"/>
<path d="M0 0 C0.33 1.98 0.66 3.96 1 6 C-4.673142 8.45417612 -9.81839396 10.46246904 -16 11 C-16.66 9.02 -17.32 7.04 -18 5 C-16.3962669 4.35309078 -14.79199694 3.70751236 -13.1875 3.0625 C-11.84751953 2.52302734 -11.84751953 2.52302734 -10.48046875 1.97265625 C-6.76340482 0.5150989 -3.98166028 -0.10761244 0 0 Z " fill="#6D6B66" transform="translate(428,201)"/>
<path d="M0 0 C6.41991126 0.57065878 12.01589463 2.67344909 18 5 C17.34 7.31 16.68 9.62 16 12 C7.585 9.525 7.585 9.525 -1 7 C-0.67 4.69 -0.34 2.38 0 0 Z " fill="#6E6E6E" transform="translate(84,201)"/>
<path d="M0 0 C6.2054142 0.48320848 11.99945246 1.33318124 18 3 C17.67 5.31 17.34 7.62 17 10 C14.72869344 9.69095829 12.45796695 9.37765093 10.1875 9.0625 C8.29064453 8.80146484 8.29064453 8.80146484 6.35546875 8.53515625 C3 8 3 8 0 7 C0 4.69 0 2.38 0 0 Z " fill="#6D6D6D" transform="translate(79,219)"/>
<path d="M0 0 C0 2.31 0 4.62 0 7 C-1.89385437 7.50744423 -3.79018666 8.00564574 -5.6875 8.5 C-6.74324219 8.7784375 -7.79898437 9.056875 -8.88671875 9.34375 C-11.71142672 9.9391715 -14.12836708 10.12786492 -17 10 C-17.33 7.69 -17.66 5.38 -18 3 C-15.75113762 2.49490792 -13.50086131 1.99610821 -11.25 1.5 C-9.37054688 1.08234375 -9.37054688 1.08234375 -7.453125 0.65625 C-4 0 -4 0 0 0 Z " fill="#6C6A67" transform="translate(433,219)"/>
<path d="M0 0 C2.0836309 0.14151828 4.16689938 0.28837936 6.25 0.4375 C7.99023438 0.55931641 7.99023438 0.55931641 9.765625 0.68359375 C12.30977376 0.93247787 14.55953248 1.28114942 17 2 C16.67 4.31 16.34 6.62 16 9 C10.72 8.67 5.44 8.34 0 8 C0 5.36 0 2.72 0 0 Z " fill="#6E6766" transform="translate(418,273)"/>
<path d="M0 0 C1.94582969 0.22961379 3.88300711 0.53436401 5.8125 0.875 C7.39998047 1.14957031 7.39998047 1.14957031 9.01953125 1.4296875 C11.37617859 1.88063181 13.68279117 2.38282574 16 3 C15.67 5.31 15.34 7.62 15 10 C9.43109483 9.52013969 4.32932432 8.70084819 -1 7 C-1.04254356 5.00045254 -1.04080783 2.99958364 -1 1 C-0.67 0.67 -0.34 0.34 0 0 Z " fill="#6E6766" transform="translate(416,290)"/>
<path d="M0 0 C0 2.31 0 4.62 0 7 C-2.10372401 7.33611568 -4.20799657 7.66879946 -6.3125 8 C-8.07013672 8.2784375 -8.07013672 8.2784375 -9.86328125 8.5625 C-13 9 -13 9 -16 9 C-16.33 6.69 -16.66 4.38 -17 2 C-15.10507994 1.66151348 -13.20901534 1.32943089 -11.3125 1 C-9.72888672 0.7215625 -9.72888672 0.7215625 -8.11328125 0.4375 C-5.35095938 0.04931926 -2.78257957 -0.08259976 0 0 Z " fill="#6D6D6D" transform="translate(94,273)"/>
<path d="M0 0 C1.89575251 -0.02721176 3.79161979 -0.04649136 5.6875 -0.0625 C6.74324219 -0.07410156 7.79898438 -0.08570313 8.88671875 -0.09765625 C11.72410262 -0.00865425 14.2438919 0.35060162 17 1 C17 3.31 17 5.62 17 8 C14.72886197 7.85899143 12.45809275 7.71203245 10.1875 7.5625 C8.92292969 7.48128906 7.65835938 7.40007812 6.35546875 7.31640625 C3 7 3 7 0 6 C0 4.02 0 2.04 0 0 Z " fill="#6A6A6A" transform="translate(77,238)"/>
<path d="M0 0 C2 3 2 3 1.625 5.6875 C1.315625 6.8321875 1.315625 6.8321875 1 8 C-4.07476794 9.26305335 -8.72796354 10.27036084 -14 10 C-14.33 7.69 -14.66 5.38 -15 3 C-7.575 1.515 -7.575 1.515 0 0 Z " fill="#6D6D6D" transform="translate(95,290)"/>
<path d="M0 0 C0 1.98 0 3.96 0 6 C-3.04213267 7.52106634 -6.28047572 7.37429338 -9.625 7.5625 C-10.33140625 7.60568359 -11.0378125 7.64886719 -11.765625 7.69335938 C-13.51018537 7.79944751 -15.25506697 7.90022889 -17 8 C-17 5.69 -17 3.38 -17 1 C-11.29309366 0.00749455 -5.78591511 -0.10477512 0 0 Z " fill="#696866" transform="translate(435,238)"/>
<path d="M0 0 C1.12148438 0.30744141 1.12148438 0.30744141 2.265625 0.62109375 C3.25046875 0.89050781 4.2353125 1.15992188 5.25 1.4375 C6.71179688 1.83775391 6.71179688 1.83775391 8.203125 2.24609375 C10.46372653 2.85544584 12.72622009 3.44238255 15 4 C14.67 5.98 14.34 7.96 14 10 C10.11764181 11.49828872 7.56550712 10.43110582 3.75 9.0625 C2.67234375 8.68222656 1.5946875 8.30195313 0.484375 7.91015625 C-0.33546875 7.60980469 -1.1553125 7.30945313 -2 7 C-1.125 1.125 -1.125 1.125 0 0 Z " fill="#6C6766" transform="translate(412,307)"/>
<path d="M0 0 C0.33 1.98 0.66 3.96 1 6 C-1.12392506 6.6700834 -3.24917524 7.33596797 -5.375 8 C-6.55835937 8.37125 -7.74171875 8.7425 -8.9609375 9.125 C-12 10 -12 10 -14 10 C-15.4606285 7.35261084 -16 6.10551666 -16 3 C-14.08802961 2.29954544 -12.17019565 1.615081 -10.25 0.9375 C-9.18265625 0.55464844 -8.1153125 0.17179687 -7.015625 -0.22265625 C-4.07719958 -0.98010011 -2.77651052 -1.07151741 0 0 Z " fill="#6D6D6D" transform="translate(101,308)"/>
<path d="M0 0 C5.01508715 1.54058233 9.6147081 3.02931839 14 6 C13.67 7.65 13.34 9.3 13 11 C10.19966161 12.11346788 9.09856297 12.03510273 6.203125 11.00390625 C5.22859375 10.52824219 4.2540625 10.05257813 3.25 9.5625 C2.26515625 9.08941406 1.2803125 8.61632812 0.265625 8.12890625 C-0.48203125 7.75636719 -1.2296875 7.38382812 -2 7 C-1.125 1.125 -1.125 1.125 0 0 Z " fill="#6D6766" transform="translate(406,323)"/>
<path d="M0 0 C0.33 1.98 0.66 3.96 1 6 C-0.74294678 6.86846831 -2.49468663 7.71930627 -4.25 8.5625 C-5.22453125 9.03816406 -6.1990625 9.51382812 -7.203125 10.00390625 C-10.09856297 11.03510273 -11.19966161 11.11346788 -14 10 C-14.33 8.35 -14.66 6.7 -15 5 C-13.06891037 3.96709159 -11.129882 2.94901328 -9.1875 1.9375 C-8.10855469 1.36902344 -7.02960938 0.80054688 -5.91796875 0.21484375 C-3 -1 -3 -1 0 0 Z " fill="#6D6D6D" transform="translate(107,324)"/>
<path d="M0 0 C5.08938811 1.59043379 8.87456643 4.7446951 13 8 C11.6875 10.5 11.6875 10.5 10 13 C6.16235973 13 4.88513915 11.73464665 1.8125 9.5 C0.46091797 8.52546875 0.46091797 8.52546875 -0.91796875 7.53125 C-1.60503906 7.0259375 -2.29210937 6.520625 -3 6 C-1.125 1.125 -1.125 1.125 0 0 Z " fill="#6D6766" transform="translate(389,353)"/>
<path d="M0 0 C0.99 0.33 1.98 0.66 3 1 C3.66 2.65 4.32 4.3 5 6 C-0.445 9.96 -0.445 9.96 -6 14 C-7.65 12.35 -9.3 10.7 -11 9 C-7.61791761 5.41897159 -4.30323854 2.43226526 0 0 Z " fill="#6D6D6D" transform="translate(121,353)"/>
<path d="M0 0 C1.27310312 0.93441535 2.543388 1.87267111 3.8125 2.8125 C4.52019531 3.33457031 5.22789062 3.85664063 5.95703125 4.39453125 C7.78531393 5.83128877 9.39896688 7.31815763 11 9 C9.63016497 12.16115776 9.0109362 12.9927092 6 15 C2.7 12.03 -0.6 9.06 -4 6 C-2 2 -2 2 0 0 Z " fill="#6D6666" transform="translate(379,366)"/>
<path d="M0 0 C1.65 1.32 3.3 2.64 5 4 C3.55218207 7.44428265 1.72305391 9.36130962 -1.125 11.75 C-2.21167969 12.67039062 -2.21167969 12.67039062 -3.3203125 13.609375 C-3.87460938 14.06828125 -4.42890625 14.5271875 -5 15 C-6.65 13.68 -8.3 12.36 -10 11 C-8.55218207 7.55571735 -6.72305391 5.63869038 -3.875 3.25 C-3.15054688 2.63640625 -2.42609375 2.0228125 -1.6796875 1.390625 C-0.84824219 0.70226562 -0.84824219 0.70226562 0 0 Z " fill="#6E6E6E" transform="translate(132,366)"/>
<path d="M0 0 C2.81198651 0.18010657 3.88214437 0.8866957 5.921875 2.84765625 C6.52515625 3.57855469 7.1284375 4.30945313 7.75 5.0625 C8.36359375 5.79597656 8.9771875 6.52945312 9.609375 7.28515625 C10.06828125 7.85105469 10.5271875 8.41695313 11 9 C10.04805783 11.45918393 9.51649557 12.72707287 7.14453125 13.98046875 C5 14 5 14 2.82421875 12.48828125 C2.11910156 11.77027344 1.41398437 11.05226563 0.6875 10.3125 C-0.03050781 9.60738281 -0.74851562 8.90226562 -1.48828125 8.17578125 C-3 6 -3 6 -2.85546875 3.85546875 C-2 2 -2 2 0 0 Z " fill="#6E6766" transform="translate(366,379)"/>
<path d="M0 0 C1.875 0.25 1.875 0.25 4 1 C5.25 3.0625 5.25 3.0625 6 5 C4.90344712 6.31886772 3.79746577 7.62990057 2.6875 8.9375 C2.07261719 9.66839844 1.45773438 10.39929688 0.82421875 11.15234375 C-1 13 -1 13 -4 14 C-6.1875 12.5625 -6.1875 12.5625 -8 11 C-6.63629701 8.00779732 -5.05091917 5.70973471 -2.875 3.25 C-2.33617187 2.63640625 -1.79734375 2.0228125 -1.2421875 1.390625 C-0.62730469 0.70226562 -0.62730469 0.70226562 0 0 Z " fill="#6E6E6E" transform="translate(143,379)"/>
<path d="M0 0 C3.68646141 1.45855647 5.16143971 3.30229045 7.25 6.625 C7.77078125 7.44226563 8.2915625 8.25953125 8.828125 9.1015625 C9.21484375 9.72804688 9.6015625 10.35453125 10 11 C8.02 12.32 6.04 13.64 4 15 C2.63353852 13.40629329 1.28212834 11.79967018 -0.0625 10.1875 C-0.81660156 9.29417969 -1.57070313 8.40085937 -2.34765625 7.48046875 C-2.89292969 6.66191406 -3.43820312 5.84335937 -4 5 C-3 2 -3 2 0 0 Z " fill="#6D6766" transform="translate(353,390)"/>
<path d="M0 0 C2.475 0.99 2.475 0.99 5 2 C5 6.59151206 4.31497074 7.33182124 1.5 10.75 C0.8503125 11.54921875 0.200625 12.3484375 -0.46875 13.171875 C-0.9740625 13.77515625 -1.479375 14.3784375 -2 15 C-3.98 13.68 -5.96 12.36 -8 11 C-7.04454634 9.53977837 -6.08553322 8.08188532 -5.125 6.625 C-4.59132812 5.81289063 -4.05765625 5.00078125 -3.5078125 4.1640625 C-2 2 -2 2 0 0 Z " fill="#6E6E6E" transform="translate(157,390)"/>
<path d="M0 0 C2.31 0 4.62 0 7 0 C7.21192221 5.19209404 6.5912689 9.126739 5 14 C2.69 13.67 0.38 13.34 -2 13 C-1.48041715 8.62065881 -0.94324258 4.31196609 0 0 Z " fill="#717171" transform="translate(218,419)"/>
<path d="M0 0 C0.83790789 1.78953185 1.67019396 3.58169695 2.5 5.375 C2.9640625 6.37273437 3.428125 7.37046875 3.90625 8.3984375 C5 11 5 11 5 13 C2.35261084 14.4606285 1.10551666 15 -2 15 C-3.65 11.04 -5.3 7.08 -7 3 C-2 0 -2 0 0 0 Z " fill="#6E6E6E" transform="translate(326,407)"/>
<path d="M0 0 C2.33944736 0.28730055 4.6739143 0.61936779 7 1 C6.21824485 5.84688192 4.60155722 10.3766367 3 15 C0.69 14.34 -1.62 13.68 -4 13 C-3.52511102 11.01980257 -3.04497141 9.04086365 -2.5625 7.0625 C-2.29566406 5.96035156 -2.02882812 4.85820312 -1.75390625 3.72265625 C-1 1 -1 1 0 0 Z " fill="#707070" transform="translate(202,414)"/>
<path d="M0 0 C2.02045442 0.60183749 4.02111039 1.27306096 6 2 C6.33 2.66 6.66 3.32 7 4 C6.00390625 6.6015625 6.00390625 6.6015625 4.5625 9.625 C4.08941406 10.62789063 3.61632812 11.63078125 3.12890625 12.6640625 C2.75636719 13.43492187 2.38382813 14.20578125 2 15 C-2.75 14.125 -2.75 14.125 -5 13 C-4.54554036 11.58208592 -4.08625056 10.16571954 -3.625 8.75 C-3.24214844 7.56664062 -3.24214844 7.56664062 -2.8515625 6.359375 C-2.04826333 4.13372042 -1.10288338 2.09068328 0 0 Z " fill="#6E6E6E" transform="translate(186,407)"/>
<path d="M0 0 C0.99 3.96 1.98 7.92 3 12 C0.69 12.33 -1.62 12.66 -4 13 C-4.67305018 11.39850114 -5.33822227 9.79368971 -6 8.1875 C-6.37125 7.29417969 -6.7425 6.40085937 -7.125 5.48046875 C-8 3 -8 3 -8 0 C-5 -1 -5 -1 0 0 Z " fill="#6E6E6E" transform="translate(311,415)"/>
<path d="M0 0 C1.98 0 3.96 0 6 0 C7.67110042 2.96178773 8.32682752 5.37071192 8.625 8.75 C8.69976562 9.54921875 8.77453125 10.3484375 8.8515625 11.171875 C8.92503906 12.07679688 8.92503906 12.07679688 9 13 C6.69 13.33 4.38 13.66 2 14 C0.4087311 9.126739 -0.21192221 5.19209404 0 0 Z " fill="#6D6D6D" transform="translate(287,419)"/>
<path d="M0 0 C0.33 4.62 0.66 9.24 1 14 C-1.31 14 -3.62 14 -6 14 C-7.10228696 9.59085217 -7.07654536 5.51617599 -7 1 C-4 0 -4 0 0 0 Z " fill="#6D6D6D" transform="translate(277,421)"/>
<path d="M0 0 C2.31 0 4.62 0 7 0 C7.07654536 4.51617599 7.10228696 8.59085217 6 13 C3.69 13 1.38 13 -1 13 C-0.67 8.71 -0.34 4.42 0 0 Z " fill="#6C6C6C" transform="translate(235,422)"/>
</svg>
