<?xml version="1.0" encoding="UTF-8"?>
<svg version="1.1" xmlns="http://www.w3.org/2000/svg" width="512" height="512">
<path d="M0 0 C1.07991761 0.89811215 2.16071844 1.79516289 3.2421875 2.69140625 C15.3292653 12.78517061 26.31551288 23.55351114 36 36 C36.77601563 36.9590625 37.55203125 37.918125 38.3515625 38.90625 C78.12742228 88.91018801 96.02369675 154.00170056 88.8125 217.375 C83.09567044 262.872865 65.65108958 306.7446442 36 342 C35.04671459 343.15741998 34.09359266 344.31497463 33.140625 345.47265625 C22.86614391 357.82323921 11.71548182 369.15226514 -1 379 C-1.98097656 379.78632813 -2.96195312 380.57265625 -3.97265625 381.3828125 C-55.3374678 422.26484476 -122.3903133 440.04252514 -187.390625 432.74609375 C-215.62510433 429.17420167 -242.33129417 421.24728873 -268 409 C-268.76070801 408.63825684 -269.52141602 408.27651367 -270.30517578 407.90380859 C-294.04463211 396.42180527 -314.98804255 380.12250915 -334 362 C-334.79921875 361.24203125 -335.5984375 360.4840625 -336.421875 359.703125 C-342.10347568 354.17825813 -347.11041843 348.22640625 -352 342 C-352.75120117 341.05543945 -352.75120117 341.05543945 -353.51757812 340.09179688 C-361.1569517 330.46673774 -368.0679818 320.76337366 -374 310 C-374.69391846 308.75935791 -374.69391846 308.75935791 -375.40185547 307.49365234 C-406.8978897 250.80489044 -414.59744002 184.07959008 -396.77734375 121.64453125 C-395.61669514 117.72663905 -394.32824853 113.86436053 -393 110 C-392.37544922 108.15341797 -392.37544922 108.15341797 -391.73828125 106.26953125 C-377.21519686 64.75900396 -349.76707043 26.05190593 -315 -1 C-313.56140625 -2.16402344 -313.56140625 -2.16402344 -312.09375 -3.3515625 C-234.23988846 -65.28077054 -122.80724965 -72.64131707 0 0 Z M-286 -2 C-286 2.81362846 -284.96499218 3.673178 -282 7.3125 C-277.41245181 13.39404618 -277.41245181 13.39404618 -277.3125 17 C-278 20 -278 20 -279.1875 21.875 C-281.57042043 23.35405406 -283.18417448 23.86591307 -286 24 C-290.49037102 21.89954546 -293.01112394 18.76985154 -295.8125 14.8125 C-296.21919922 14.25369141 -296.62589844 13.69488281 -297.04492188 13.11914062 C-298.03813864 11.75200695 -299.02022934 10.3768019 -300 9 C-316.80710343 16.28307815 -332.07887305 35.86368624 -342.70117188 50.25244141 C-344.03331039 52.04481875 -345.39641418 53.81004327 -346.765625 55.57421875 C-356.19634289 67.87050625 -363.311647 81.24458423 -370 95.1875 C-370.37398926 95.96512695 -370.74797852 96.74275391 -371.13330078 97.54394531 C-373.20790637 101.96989869 -374.79493539 106.26133448 -376 111 C-373.20964954 112.00380916 -370.41785145 113.0031945 -367.625 114 C-366.8309375 114.28617188 -366.036875 114.57234375 -365.21875 114.8671875 C-364.45820313 115.13789063 -363.69765625 115.40859375 -362.9140625 115.6875 C-362.2123291 115.93886719 -361.5105957 116.19023437 -360.78759766 116.44921875 C-358.99319889 117.0981509 -358.99319889 117.0981509 -357 117 C-355.42415356 125.01626233 -355.42415356 125.01626233 -357.5 128.5625 C-360.85230461 130.49007515 -363.2885346 130.68317239 -367 130 C-370.18319805 129.05441492 -373.30284766 128.00348792 -376.42578125 126.875 C-378.8624555 125.89272485 -378.8624555 125.89272485 -381 126 C-384.03347024 134.26136575 -385.758046 142.52559436 -387.1875 151.1875 C-387.43741699 152.70053711 -387.43741699 152.70053711 -387.69238281 154.24414062 C-389.49767467 165.58003897 -390.23999482 176.64023503 -390.25 188.125 C-390.25067474 188.82597809 -390.25134949 189.52695618 -390.25204468 190.24917603 C-390.23808258 199.45254815 -389.93634537 208.54124609 -388.8125 217.6875 C-388.71163086 218.53135254 -388.61076172 219.37520508 -388.50683594 220.24462891 C-387.08746897 230.35044522 -384.37520088 240.02415629 -382 250 C-327.22 250 -272.44 250 -216 250 C-215.01 246.04 -214.02 242.08 -213 238 C-207.01100623 222.35236375 -196.99557202 212.01779529 -182 205 C-176.05330448 202.61577709 -170.31671642 201.01954593 -164 200 C-163.99641747 198.84732368 -163.99641747 198.84732368 -163.99276257 197.67136097 C-163.93363556 178.9762651 -163.85810026 160.28130151 -163.76428509 141.58634663 C-163.71931281 132.54561338 -163.67990146 123.50491965 -163.65356445 114.46411133 C-163.63059596 106.58446148 -163.59721083 98.70493655 -163.55129844 90.82538575 C-163.52735067 86.65291785 -163.5086321 82.48057378 -163.50238609 78.30803871 C-163.49634223 74.38046606 -163.47636791 70.45321031 -163.44572449 66.52575493 C-163.43693302 65.08463872 -163.43322398 63.64348111 -163.43499184 62.20233917 C-163.43664443 60.23347392 -163.41817958 58.26462251 -163.39872742 56.29585266 C-163.39411845 55.19431005 -163.38950949 54.09276743 -163.38476086 52.95784473 C-162.94732825 49.59508654 -162.02477531 47.70021621 -160 45 C-156.92431203 43.78591264 -155.42250015 43.87517041 -152.25 44.8125 C-150 46 -150 46 -149 48 C-148.8940633 50.00156476 -148.85333873 52.00668391 -148.84178162 54.01101685 C-148.82709839 55.93356796 -148.82709839 55.93356796 -148.81211853 57.8949585 C-148.80621394 59.32336388 -148.80040352 60.75176966 -148.79467773 62.18017578 C-148.78510192 63.67799146 -148.77509202 65.17580441 -148.76467896 66.6736145 C-148.73759166 70.74772894 -148.71660285 74.82185501 -148.69667697 78.89600992 C-148.67484096 83.15081825 -148.64744063 87.40559057 -148.62062073 91.66036987 C-148.57066152 99.72095775 -148.52573469 107.78156557 -148.48259836 115.84219253 C-148.43325354 125.0174206 -148.37832521 134.19261256 -148.32291877 143.36780572 C-148.20904919 162.2451703 -148.10222101 181.12256894 -148 200 C-147.09555397 200.29479752 -147.09555397 200.29479752 -146.1728363 200.59555054 C-144.97437828 200.98983749 -144.97437828 200.98983749 -143.75170898 201.39208984 C-142.96311996 201.65049652 -142.17453094 201.9089032 -141.36204529 202.17514038 C-125.97729577 207.54771249 -113.60321502 216.27723504 -106 231 C-103.18066991 237.33433904 -101.14320845 243.14074928 -100 250 C-45.22 250 9.56 250 66 250 C70.04012725 233.92930017 70.04012725 233.92930017 72.8125 217.6875 C72.92867676 216.72005859 73.04485352 215.75261719 73.16455078 214.75585938 C76.03228263 187.77637334 77.42960651 150.85921302 65 126 C63.22888156 126.47811177 61.45811517 126.9575278 59.6875 127.4375 C58.70136719 127.70433594 57.71523438 127.97117188 56.69921875 128.24609375 C54.78482474 128.78079425 52.88566385 129.37144538 51 130 C44.52066116 130.34710744 44.52066116 130.34710744 41 128 C40 124.6875 40 124.6875 40 121 C43.66342987 116.34779974 47.34126905 114.78436645 52.8125 113.1875 C53.50537109 112.97158203 54.19824219 112.75566406 54.91210938 112.53320312 C56.60380878 112.00819297 58.30136365 111.50211263 60 111 C50.49296257 79.75228668 30.55926383 52.13890233 8 29 C7.01817037 27.97792106 6.03639626 26.95578879 5.0546875 25.93359375 C-3.85850089 16.74345018 -3.85850089 16.74345018 -14 9 C-18.63564136 10.54521379 -20.20923736 14.38549396 -22.8671875 18.3359375 C-25.08431627 21.10531813 -26.77157826 22.55892216 -30 24 C-33.75 23.3125 -33.75 23.3125 -37 22 C-38.56671961 18.86656079 -38.31543535 16.4662044 -38 13 C-36.56468897 10.58788008 -35.2691396 8.67962352 -33.5 6.5625 C-32.85611328 5.75135742 -32.85611328 5.75135742 -32.19921875 4.92382812 C-31.14784571 3.60377087 -30.07594844 2.30010437 -29 1 C-30.47363651 -3.64354525 -34.32305513 -5.36306895 -38.3125 -7.625 C-39.06958252 -8.058125 -39.82666504 -8.49125 -40.60668945 -8.9375 C-73.45954464 -27.42996632 -111.905518 -40.54992034 -150 -40 C-150.01401855 -39.16807129 -150.01401855 -39.16807129 -150.02832031 -38.31933594 C-150.08215722 -35.79533519 -150.16577254 -33.27316186 -150.25 -30.75 C-150.26417969 -29.87730469 -150.27835938 -29.00460938 -150.29296875 -28.10546875 C-150.53981602 -21.63807022 -150.53981602 -21.63807022 -152.859375 -18.421875 C-155.80870697 -16.46282968 -157.52924935 -16.42154156 -161 -17 C-163.140625 -18.421875 -163.140625 -18.421875 -165 -21 C-165.6335081 -24.2426007 -165.69642731 -27.45284428 -165.75 -30.75 C-165.77964844 -31.63816406 -165.80929688 -32.52632812 -165.83984375 -33.44140625 C-165.91036918 -35.62769449 -165.96314637 -37.81292768 -166 -40 C-203.76408933 -41.00916694 -257.29812642 -27.46713649 -286 -2 Z M-192 231 C-194.38016734 234.18353619 -196.26977044 237.42533431 -198 241 C-198.33902344 241.68320312 -198.67804688 242.36640625 -199.02734375 243.0703125 C-202.84710855 252.32928156 -202.23672699 263.64957716 -198.9375 272.9375 C-193.66001958 284.89683237 -185.08941279 293.22665767 -173.04296875 298.2734375 C-163.20417733 301.77251055 -150.0238046 301.50164825 -140.45703125 297.328125 C-127.88675016 290.53337846 -120.03652647 281.76914945 -115.3515625 268.109375 C-113.16121596 254.96729577 -115.46727526 243.02705044 -123.24609375 232.12890625 C-130.92647128 222.80639901 -140.91546118 216.49499449 -153 215 C-168.4987047 213.58643736 -181.56561831 219.84901923 -192 231 Z M-216 357 C-216 360.05337361 -215.49130113 361.40189428 -213.5625 363.75 C-210.90011974 365.87990421 -209.17559848 366.1263525 -205.83816528 366.13371277 C-204.96612457 366.13797775 -204.09408386 366.14224274 -203.19561768 366.14663696 C-202.2366156 366.14618378 -201.27761353 366.14573059 -200.28955078 366.14526367 C-198.77719345 366.15030159 -198.77719345 366.15030159 -197.23428345 366.15544128 C-193.8879474 366.16497138 -190.54166129 366.16689546 -187.1953125 366.16796875 C-184.87604756 366.17118002 -182.55678282 366.17454399 -180.23751831 366.17805481 C-175.37009206 366.18405132 -170.50268359 366.18589419 -165.63525391 366.18530273 C-159.39167229 366.18520111 -153.14820439 366.19885132 -146.90464973 366.21607494 C-142.11261469 366.22718232 -137.32060724 366.22922233 -132.52856064 366.22869301 C-130.226425 366.22987511 -127.92428869 366.2343097 -125.62216568 366.24202538 C-122.40444176 366.25179923 -119.18696602 366.24895739 -115.96923828 366.24291992 C-115.01428467 366.24853943 -114.05933105 366.25415894 -113.07543945 366.25994873 C-112.19775909 366.25575424 -111.32007874 366.25155975 -110.415802 366.24723816 C-109.65515505 366.24778293 -108.89450809 366.24832769 -108.11081123 366.24888897 C-105.67840158 365.96207984 -104.08590945 365.26794922 -102 364 C-100.27602293 361.61926976 -99.98123798 360.38462145 -100.125 357.4375 C-101.20957886 354.41617316 -102.2949409 353.66855354 -105 352 C-107.15588964 351.54977372 -107.15588964 351.54977372 -109.47154236 351.60559082 C-110.36171555 351.59424103 -111.25188873 351.58289124 -112.16903687 351.57119751 C-113.13797882 351.57412811 -114.10692078 351.57705872 -115.10522461 351.58007812 C-116.13165573 351.57160858 -117.15808685 351.56313904 -118.21562195 351.55441284 C-121.61132164 351.53099837 -125.00656941 351.53002175 -128.40234375 351.53125 C-130.76119672 351.52415126 -133.12004795 351.51645269 -135.47889709 351.50817871 C-140.4243754 351.49472374 -145.36969404 351.49316982 -150.31518555 351.49902344 C-156.65527496 351.5049211 -162.99459903 351.47432895 -169.33454037 351.43390656 C-174.20642735 351.4080681 -179.07812909 351.40514867 -183.95007515 351.40879822 C-186.28768399 351.40710344 -188.62530106 351.39742678 -190.96284294 351.37965393 C-194.23087801 351.35754083 -197.49735154 351.36712837 -200.76538086 351.38476562 C-202.21575745 351.36487076 -202.21575745 351.36487076 -203.69543457 351.34457397 C-209.47301406 351.41709385 -212.44573975 351.98364759 -216 357 Z " fill="#000000" transform="translate(414,67)"/>
</svg>
